<svg id="LOGO" xmlns="http://www.w3.org/2000/svg" viewBox="0 0 286.99 101.5"><defs><style>.cls-1{fill:#1d1d1b;}.cls-2{fill:#fff;}.cls-3{fill:#00e394;}</style></defs><path class="cls-1" d="M257.15,98.82q-4.08-2.91-4.08-10.55V73H248V63.88h5.08V56.46l9.48-2.87V63.88h8.3L268.38,73h-5.83V88.27a3.65,3.65,0,0,0,.95,2.8,4.52,4.52,0,0,0,2.8,1,43.16,43.16,0,0,0,4.55,0v8.6Q261.22,101.71,257.15,98.82Z" transform="translate(-0.01 -0.25)"/><path class="cls-1" d="M215.08,96.06a18.87,18.87,0,0,1-5.51-13.81,19,19,0,0,1,18.59-19.4H229a19,19,0,0,1,9.77,2.57,17.24,17.24,0,0,1,6.69,6.91L237.3,77.1A8.47,8.47,0,0,0,234,73.5a9.77,9.77,0,0,0-5-1.32A9.48,9.48,0,0,0,222,75a9.91,9.91,0,0,0-2.8,7.24,10.08,10.08,0,0,0,2.8,7.2,9.54,9.54,0,0,0,7,2.79A10.18,10.18,0,0,0,234,91a8.12,8.12,0,0,0,3.34-3.57l8.23,4.71a17.85,17.85,0,0,1-6.87,7,19.12,19.12,0,0,1-9.73,2.57A18.82,18.82,0,0,1,215.08,96.06Z" transform="translate(-0.01 -0.25)"/><path class="cls-1" d="M209.6,16v6.32a9.78,9.78,0,0,1,4.26-5.25,13.2,13.2,0,0,1,6.91-1.8V25.88A10.85,10.85,0,0,0,213,27.64c-2.26,1.52-3.38,4.05-3.38,7.57V52.78h-9.48V16Z" transform="translate(-0.01 -0.25)"/><path class="cls-1" d="M193.14,73.28a9.25,9.25,0,0,0-5.84-1.91,10,10,0,0,0-6.3,1.95,9.24,9.24,0,0,0-3.31,5.47h18.74A9.29,9.29,0,0,0,193.14,73.28ZM173.41,96.14a18.87,18.87,0,0,1-5.51-13.89,19,19,0,0,1,5.44-13.82q5.35-5.58,14-5.58a17.27,17.27,0,0,1,13.3,5.58,19.3,19.3,0,0,1,5.29,13.82,25.48,25.48,0,0,1-.37,3.89h-27.7q1.83,6.92,10.36,6.91,5.44,0,8.23-3.67l7.64,4.41q-5.43,7.86-16,7.86Q178.93,101.65,173.41,96.14Z" transform="translate(-0.01 -0.25)"/><path class="cls-1" d="M193.87,38.3h-27.7q1.83,6.9,10.36,6.91,5.44,0,8.23-3.68l7.64,4.41q-5.43,7.86-16,7.86-9.1,0-14.62-5.51a18.84,18.84,0,0,1-5.51-13.89,19,19,0,0,1,5.44-13.81Q167,15,175.65,15A17.28,17.28,0,0,1,189,20.59a19.3,19.3,0,0,1,5.29,13.81A25.56,25.56,0,0,1,193.87,38.3ZM181.49,25.44a9.25,9.25,0,0,0-5.84-1.91,10,10,0,0,0-6.32,1.95A9.31,9.31,0,0,0,166,31h18.74A9.26,9.26,0,0,0,181.49,25.44Z" transform="translate(-0.01 -0.25)"/><path class="cls-1" d="M137.62,68q3.39-5.15,10.95-5.14a13,13,0,0,1,9.92,4q4,4.11,4,11.17v22.56H153V79.24a7.67,7.67,0,0,0-2-5.59,7.12,7.12,0,0,0-5.33-2A7.73,7.73,0,0,0,139.79,74c-1.44,1.54-2.17,3.81-2.17,6.8v19.84h-9.47V63.88h9.47Z" transform="translate(-0.01 -0.25)"/><path class="cls-1" d="M96.29,52.78V16h9.48v3.9Q109.07,15,116,15t10,5.29Q129.6,15,137,15A13.1,13.1,0,0,1,147,19.12q3.78,4.11,3.78,11V52.78H141.3v-22a7.58,7.58,0,0,0-1.61-5.14,5.77,5.77,0,0,0-4.56-1.84,6.22,6.22,0,0,0-5,2.13,9.36,9.36,0,0,0-1.8,6.18V52.78h-9.48v-22a7.52,7.52,0,0,0-1.62-5.14,5.77,5.77,0,0,0-4.56-1.84,6.32,6.32,0,0,0-5,2.17,9.1,9.1,0,0,0-1.87,6.14V52.78Z" transform="translate(-0.01 -0.25)"/><path class="cls-1" d="M109.37,73.65a7.12,7.12,0,0,0-5.33-2A7.71,7.71,0,0,0,98.13,74Q96,76.3,96,80.78v19.84H86.48V63.88H96V68q3.38-5.15,11-5.14a13.06,13.06,0,0,1,9.92,4q4,4.11,4,11.17v22.56h-9.48V79.24A7.62,7.62,0,0,0,109.37,73.65Z" transform="translate(-0.01 -0.25)"/><path class="cls-1" d="M84.6,17.1a13.2,13.2,0,0,1,6.91-1.8V25.88a10.8,10.8,0,0,0-7.79,1.76c-2.25,1.52-3.38,4.05-3.38,7.57V52.78H70.86V16h9.48v6.32A9.81,9.81,0,0,1,84.6,17.1Z" transform="translate(-0.01 -0.25)"/><path class="cls-1" d="M28.9,48.22A19.63,19.63,0,0,1,23.68,34.4,19.58,19.58,0,0,1,28.9,20.66,16.74,16.74,0,0,1,41.54,15q7.73,0,12,5.36V16H63V52.78H53.52V48.44q-4.26,5.37-12,5.36A16.83,16.83,0,0,1,28.9,48.22ZM53.52,34.4A9.91,9.91,0,0,0,50.58,27a9.71,9.71,0,0,0-7.27-3A9.72,9.72,0,0,0,36,27a10.05,10.05,0,0,0-2.87,7.42A10.29,10.29,0,0,0,36,41.9a9.86,9.86,0,0,0,7.28,2.87,9.82,9.82,0,0,0,7.27-2.87A10.16,10.16,0,0,0,53.52,34.4Z" transform="translate(-0.01 -0.25)"/><path class="cls-1" d="M6.12,52.78V25.15H.83V16H6.12v-.36q0-7.87,4.37-11.87T23.39.31V9.42q-7.79-.51-7.79,6.25V16h7.79l-2.32,9.12H15.6V52.78Z" transform="translate(-0.01 -0.25)"/><path class="cls-2" d="M73.89,67.48a19.41,19.41,0,0,0-26.31,1.06h0l-1.83,1.83a2,2,0,0,0,0,2.83l0,0L49.4,76.9a2,2,0,0,0,2.83,0l0,0,1.84-1.85h0a10.17,10.17,0,0,1,9-2.82,9.78,9.78,0,0,1,4,1.61,10.23,10.23,0,0,1,0,16.87,10.22,10.22,0,0,1-12.94-1.18h0l-1.87-1.87a2,2,0,0,0-2.83,0l0,0-3.65,3.65a2,2,0,0,0,0,2.83l0,0L47.58,96h0A19.42,19.42,0,1,0,75.15,68.64C74.75,68.24,74.33,67.85,73.89,67.48Z" transform="translate(-0.01 -0.25)"/><path class="cls-2" d="M31.34,87.66a2,2,0,0,0-2.83,0l0,0-1.83,1.83a10.21,10.21,0,0,1-14.44,0A9.83,9.83,0,0,1,11,88a9.69,9.69,0,0,1-1.63-4,10.22,10.22,0,0,1,17.27-9l1.83,1.84a2,2,0,0,0,2.83,0l0,0L35,73.25a2,2,0,0,0,0-2.83l0,0-1.84-1.84a19.42,19.42,0,1,0,0,27.47L35,94.17a2,2,0,0,0,0-2.83l0,0Z" transform="translate(-0.01 -0.25)"/><rect class="cls-2" x="35.3" y="77.22" width="10.11" height="10.11" rx="2.84" transform="translate(-46.37 52.39) rotate(-45)"/><path class="cls-1" d="M73.89,67.48a19.41,19.41,0,0,0-26.31,1.06h0l-1.83,1.83a2,2,0,0,0,0,2.83l0,0L49.4,76.9a2,2,0,0,0,2.83,0l0,0,1.84-1.85h0a10.17,10.17,0,0,1,9-2.82,9.78,9.78,0,0,1,4,1.61,10.23,10.23,0,0,1,0,16.87,10.22,10.22,0,0,1-12.94-1.18h0l-1.87-1.87a2,2,0,0,0-2.83,0l0,0-3.65,3.65a2,2,0,0,0,0,2.83l0,0L47.58,96h0A19.42,19.42,0,1,0,75.15,68.64C74.75,68.24,74.33,67.85,73.89,67.48Z" transform="translate(-0.01 -0.25)"/><path class="cls-1" d="M31.34,87.66a2,2,0,0,0-2.83,0l0,0-1.83,1.83a10.21,10.21,0,0,1-14.44,0A9.83,9.83,0,0,1,11,88a9.69,9.69,0,0,1-1.63-4,10.22,10.22,0,0,1,17.27-9l1.83,1.84a2,2,0,0,0,2.83,0l0,0L35,73.25a2,2,0,0,0,0-2.83l0,0-1.84-1.84a19.42,19.42,0,1,0,0,27.47L35,94.17a2,2,0,0,0,0-2.83l0,0Z" transform="translate(-0.01 -0.25)"/><rect class="cls-3" x="35.3" y="77.22" width="10.11" height="10.11" rx="2.84" transform="translate(-46.37 52.39) rotate(-45)"/><path class="cls-1" d="M280.68,60.6a6.34,6.34,0,0,0-6.35,6.33h0a6.28,6.28,0,0,0,6.26,6.3h.05a6.35,6.35,0,0,0,6.36-6.3h0a6.3,6.3,0,0,0-6.25-6.33Zm5.59,6.33a5.58,5.58,0,0,1-5.52,5.64h-.11a5.52,5.52,0,0,1-5.58-5.46V67h0a5.61,5.61,0,1,1,11.21-.47,3.68,3.68,0,0,1,0,.47Z" transform="translate(-0.01 -0.25)"/><path class="cls-1" d="M282.24,67.7a2.07,2.07,0,0,0,1.45-2.08h0a2,2,0,0,0-.56-1.48,2.85,2.85,0,0,0-2.08-.73h-3v6.74h1.49V68h1.18l1.43,2.17h1.73Zm-.05-2a1,1,0,0,1-1.16,1h-1.49v-2H281C281.73,64.7,282.19,65,282.19,65.7Z" transform="translate(-0.01 -0.25)"/><path class="cls-1" d="M280.68,60.6a6.34,6.34,0,0,0-6.35,6.33h0a6.28,6.28,0,0,0,6.26,6.3h.05a6.35,6.35,0,0,0,6.36-6.3h0a6.3,6.3,0,0,0-6.25-6.33Zm5.59,6.33a5.58,5.58,0,0,1-5.52,5.64h-.11a5.52,5.52,0,0,1-5.58-5.46V67h0a5.61,5.61,0,1,1,11.21-.47,3.68,3.68,0,0,1,0,.47Z" transform="translate(-0.01 -0.25)"/><path class="cls-1" d="M282.24,67.7a2.07,2.07,0,0,0,1.45-2.08h0a2,2,0,0,0-.56-1.48,2.85,2.85,0,0,0-2.08-.73h-3v6.74h1.49V68h1.18l1.43,2.17h1.73Zm-.05-2a1,1,0,0,1-1.16,1h-1.49v-2H281C281.73,64.7,282.19,65,282.19,65.7Z" transform="translate(-0.01 -0.25)"/></svg>