<svg id="LOGO" xmlns="http://www.w3.org/2000/svg" viewBox="0 0 287 101.9"><defs><style>.cls-1{fill:#1d1d1b;}.cls-2{fill:#fff;}</style></defs><path class="cls-1" d="M270.86,92v8.59q-9.63,1.11-13.71-1.8t-4.07-10.54V73H248V63.88h5.09V56.46l9.47-2.87V63.88h8.31L268.39,73h-5.84V88.28a3.63,3.63,0,0,0,1,2.79,4.36,4.36,0,0,0,2.79,1A41.36,41.36,0,0,0,270.86,92Z"/><path class="cls-1" d="M237.35,87.4l8.23,4.7a17.93,17.93,0,0,1-6.87,7,19.17,19.17,0,0,1-9.74,2.57,19,19,0,0,1-19.4-19.4,19.5,19.5,0,0,1,29.17-16.83,17.15,17.15,0,0,1,6.69,6.91l-8.15,4.78a8.31,8.31,0,0,0-3.35-3.6,9.72,9.72,0,0,0-5-1.33A9.53,9.53,0,0,0,221.84,75a9.88,9.88,0,0,0-2.79,7.24,10.07,10.07,0,0,0,2.79,7.2,9.55,9.55,0,0,0,7.06,2.8A10,10,0,0,0,234,91,8.11,8.11,0,0,0,237.35,87.4Z"/><path class="cls-1" d="M220.77,15.3V25.88A10.81,10.81,0,0,0,213,27.65q-3.37,2.28-3.38,7.57V52.78h-9.47V16h9.47v6.32a9.82,9.82,0,0,1,4.27-5.26A13.2,13.2,0,0,1,220.77,15.3Z"/><path class="cls-1" d="M205.9,82.25a25.59,25.59,0,0,1-.37,3.9h-27.7q1.83,6.9,10.36,6.9c3.62,0,6.37-1.22,8.23-3.67l7.64,4.41q-5.44,7.86-16,7.86-9.1,0-14.62-5.51a18.79,18.79,0,0,1-5.51-13.89,19,19,0,0,1,5.43-13.81q5.37-5.6,14-5.59a17.25,17.25,0,0,1,13.3,5.59A19.34,19.34,0,0,1,205.9,82.25ZM177.68,78.8h18.74a8.92,8.92,0,0,0-9.11-7.42A10,10,0,0,0,181,73.32,9.32,9.32,0,0,0,177.68,78.8Z"/><path class="cls-1" d="M194.25,34.41a26.7,26.7,0,0,1-.37,3.89h-27.7q1.83,6.91,10.36,6.91,5.43,0,8.23-3.67L192.41,46q-5.44,7.86-16,7.86-9.12,0-14.62-5.51a18.83,18.83,0,0,1-5.52-13.89,19.07,19.07,0,0,1,5.44-13.82q5.37-5.58,14-5.58A17.28,17.28,0,0,1,189,20.59,19.36,19.36,0,0,1,194.25,34.41ZM166,31h18.74a8.92,8.92,0,0,0-9.12-7.42,10,10,0,0,0-6.32,1.95A9.33,9.33,0,0,0,166,31Z"/><path class="cls-1" d="M162.47,78.06v22.56H153V79.24a7.65,7.65,0,0,0-2-5.59,7.13,7.13,0,0,0-5.33-2A7.71,7.71,0,0,0,139.8,74c-1.45,1.55-2.17,3.81-2.17,6.8v19.84h-9.48V63.88h9.48V68q3.38-5.15,11-5.15a13,13,0,0,1,9.92,4Q162.48,71,162.47,78.06Z"/><path class="cls-1" d="M150.82,30.15V52.78h-9.48v-22a7.54,7.54,0,0,0-1.62-5.15,5.76,5.76,0,0,0-4.55-1.83,6.24,6.24,0,0,0-5,2.13,9.32,9.32,0,0,0-1.8,6.17V52.78h-9.48v-22a7.54,7.54,0,0,0-1.62-5.15,5.73,5.73,0,0,0-4.55-1.83,6.3,6.3,0,0,0-5,2.16,9.11,9.11,0,0,0-1.88,6.14V52.78H96.29V16h9.48v3.89Q109.09,15,116,15t10,5.29q3.6-5.3,11-5.29A13.06,13.06,0,0,1,147,19.12Q150.82,23.25,150.82,30.15Z"/><path class="cls-1" d="M120.8,78.06v22.56h-9.48V79.24a7.69,7.69,0,0,0-1.94-5.59,7.15,7.15,0,0,0-5.33-2A7.74,7.74,0,0,0,98.13,74C96.69,75.53,96,77.79,96,80.78v19.84H86.49V63.88H96V68q3.38-5.15,10.94-5.15a13,13,0,0,1,9.92,4Q120.81,71,120.8,78.06Z"/><path class="cls-1" d="M91.52,15.3V25.88a10.8,10.8,0,0,0-7.79,1.77c-2.26,1.52-3.38,4-3.38,7.57V52.78H70.87V16h9.48v6.32a9.75,9.75,0,0,1,4.26-5.26A13.21,13.21,0,0,1,91.52,15.3Z"/><path class="cls-1" d="M63,16V52.78H53.53V48.44q-4.28,5.37-12,5.37a16.8,16.8,0,0,1-12.64-5.59,19.61,19.61,0,0,1-5.22-13.81,19.52,19.52,0,0,1,5.22-13.74A16.69,16.69,0,0,1,41.55,15q7.71,0,12,5.36V16ZM53.53,34.41A9.9,9.9,0,0,0,50.59,27a9.74,9.74,0,0,0-7.28-2.94A9.71,9.71,0,0,0,36,27a10,10,0,0,0-2.87,7.42A10.28,10.28,0,0,0,36,41.9a9.85,9.85,0,0,0,7.27,2.87,9.87,9.87,0,0,0,7.28-2.87A10.13,10.13,0,0,0,53.53,34.41Z"/><path class="cls-1" d="M23.4.31V9.42q-7.8-.51-7.79,6.25V16H23.4l-2.32,9.11H15.61V52.78H6.13V25.15H.84V16H6.13v-.37q0-7.86,4.37-11.87T23.4.31Z"/><path class="cls-1" d="M73.89,67.48a19.41,19.41,0,0,0-26.31,1.06h0l-1.83,1.83a2,2,0,0,0,0,2.87L49.4,76.9a2,2,0,0,0,2.87,0l1.84-1.85h0a10.19,10.19,0,0,1,9-2.82,9.92,9.92,0,0,1,3.95,1.61,10.23,10.23,0,0,1,0,16.87,9.94,9.94,0,0,1-3.94,1.61,10.15,10.15,0,0,1-9-2.79h0l-1.87-1.87a2,2,0,0,0-2.87,0l-3.65,3.65a2,2,0,0,0,0,2.86L47.58,96h0A19.42,19.42,0,1,0,73.89,67.48Z"/><path class="cls-1" d="M31.34,87.66a2,2,0,0,0-2.87,0l-1.83,1.83A10.21,10.21,0,0,1,11,88a9.72,9.72,0,0,1-1.63-4,10.22,10.22,0,0,1,17.27-9l1.83,1.84a2,2,0,0,0,2.87,0L35,73.25a2,2,0,0,0,0-2.87l-1.84-1.84a19.42,19.42,0,1,0,0,27.47L35,94.17a2,2,0,0,0,0-2.86Z"/><rect class="cls-1" x="35.31" y="77.22" width="10.11" height="10.11" rx="2.84" transform="translate(-46.36 52.64) rotate(-45)"/><path class="cls-1" d="M73.89,67.48a19.41,19.41,0,0,0-26.31,1.06h0l-1.83,1.83a2,2,0,0,0,0,2.87L49.4,76.9a2,2,0,0,0,2.87,0l1.84-1.85h0a10.19,10.19,0,0,1,9-2.82,9.92,9.92,0,0,1,3.95,1.61,10.23,10.23,0,0,1,0,16.87,9.94,9.94,0,0,1-3.94,1.61,10.15,10.15,0,0,1-9-2.79h0l-1.87-1.87a2,2,0,0,0-2.87,0l-3.65,3.65a2,2,0,0,0,0,2.86L47.58,96h0A19.42,19.42,0,1,0,73.89,67.48Z"/><path class="cls-1" d="M31.34,87.66a2,2,0,0,0-2.87,0l-1.83,1.83A10.21,10.21,0,0,1,11,88a9.72,9.72,0,0,1-1.63-4,10.22,10.22,0,0,1,17.27-9l1.83,1.84a2,2,0,0,0,2.87,0L35,73.25a2,2,0,0,0,0-2.87l-1.84-1.84a19.42,19.42,0,1,0,0,27.47L35,94.17a2,2,0,0,0,0-2.86Z"/><rect class="cls-2" x="35.31" y="77.22" width="10.11" height="10.11" rx="2.84" transform="translate(-46.36 52.64) rotate(-45)"/><path class="cls-1" d="M280.68,60.6a6.34,6.34,0,0,0-6.35,6.33v0a6.28,6.28,0,0,0,6.31,6.3A6.35,6.35,0,0,0,287,66.93v0A6.29,6.29,0,0,0,280.68,60.6Zm5.59,6.33a5.58,5.58,0,0,1-5.63,5.64,5.52,5.52,0,0,1-5.58-5.6v0a5.61,5.61,0,1,1,11.21,0Z"/><path class="cls-1" d="M282.24,67.7a2.07,2.07,0,0,0,1.45-2.08v0a2,2,0,0,0-.56-1.48,2.84,2.84,0,0,0-2.08-.73h-3v6.74h1.49V68h1.18l1.43,2.17h1.73Zm-.05-2c0,.56-.41,1-1.16,1h-1.49v-2H281c.73,0,1.19.34,1.19,1Z"/><path class="cls-1" d="M280.68,60.6a6.34,6.34,0,0,0-6.35,6.33v0a6.28,6.28,0,0,0,6.31,6.3A6.35,6.35,0,0,0,287,66.93v0A6.29,6.29,0,0,0,280.68,60.6Zm5.59,6.33a5.58,5.58,0,0,1-5.63,5.64,5.52,5.52,0,0,1-5.58-5.6v0a5.61,5.61,0,1,1,11.21,0Z"/><path class="cls-1" d="M282.24,67.7a2.07,2.07,0,0,0,1.45-2.08v0a2,2,0,0,0-.56-1.48,2.84,2.84,0,0,0-2.08-.73h-3v6.74h1.49V68h1.18l1.43,2.17h1.73Zm-.05-2c0,.56-.41,1-1.16,1h-1.49v-2H281c.73,0,1.19.34,1.19,1Z"/></svg>