<svg width="756" height="659" viewBox="0 0 756 659" fill="none" xmlns="http://www.w3.org/2000/svg">
<path d="M714.097 125.91H334.684C302.991 125.91 277.298 151.603 277.298 183.296V183.296C277.298 214.99 302.991 240.682 334.684 240.682H526.814C557.737 240.682 582.806 265.751 582.806 296.674V296.674C582.806 327.598 557.738 352.667 526.814 352.667H199.985C168.675 352.667 143.293 378.049 143.293 409.359V409.359C143.293 440.669 168.675 466.051 199.985 466.051H365.993C399.13 466.051 425.993 492.914 425.993 526.051V639.249" stroke="#00E394" stroke-width="5" stroke-linecap="round" stroke-dasharray="1 15"/>
<path d="M405.947 638.578L423.121 655.751C424.683 657.313 427.215 657.313 428.777 655.751L445.951 638.578" stroke="#00E394" stroke-width="4" stroke-linecap="round"/>
<ellipse cx="517.382" cy="297.095" rx="25.5124" ry="6.81898" fill="#C4E1D7"/>
<path d="M561.807 228.004C561.807 255.329 536.62 283.64 524.177 295.96C520.365 299.733 514.401 299.733 510.59 295.96C498.146 283.64 472.959 255.329 472.959 228.004C472.959 216.222 477.639 204.922 485.971 196.591C494.302 188.26 505.601 183.58 517.383 183.58C529.165 183.58 540.465 188.26 548.796 196.591C557.127 204.922 561.807 216.222 561.807 228.004Z" fill="#275C3D"/>
<mask id="mask0_669_4764" style="mask-type:alpha" maskUnits="userSpaceOnUse" x="484" y="195" width="67" height="66">
<path d="M517.382 260.897C499.215 260.897 484.488 246.17 484.488 228.004C484.488 209.837 499.215 195.11 517.382 195.11C535.548 195.11 550.275 209.837 550.275 228.004C550.275 246.17 535.548 260.897 517.382 260.897Z" fill="#C9F6FF"/>
</mask>
<g mask="url(#mask0_669_4764)">
<path d="M517.382 260.897C499.215 260.897 484.488 246.17 484.488 228.004C484.488 209.837 499.215 195.11 517.382 195.11C535.548 195.11 550.275 209.837 550.275 228.004C550.275 246.17 535.548 260.897 517.382 260.897Z" fill="#C9F6FF"/>
<path d="M484.488 260.897H550.275V241.161H484.488V260.897Z" fill="#41855D"/>
<ellipse cx="517.382" cy="251.53" rx="11.5127" ry="1.64467" fill="#275C3D"/>
<circle r="1.67816" transform="matrix(-1 0 0 1 542.8 223.466)" stroke="#00E394" stroke-width="0.587358"/>
<path d="M541.12 223.466L532.529 223.466" stroke="#00E394" stroke-width="0.587358"/>
<path d="M502.846 190.842L502.846 201.555L509.567 208.276L509.567 222.861" stroke="#00E394" stroke-width="0.587358" stroke-linejoin="round"/>
<path d="M532.223 190.842L532.223 201.555L525.501 208.276L525.501 222.546" stroke="#00E394" stroke-width="0.587358" stroke-linejoin="round"/>
<path d="M502.485 223.466L493.895 223.466" stroke="#00E394" stroke-width="0.587358"/>
<path d="M501.759 213.954H494.417L488.549 208.085" stroke="#EF6671" stroke-width="0.671266" stroke-linecap="round" stroke-linejoin="round" stroke-dasharray="0.42 1.68"/>
<path d="M501.758 233.292H485.371" stroke="#EF6671" stroke-width="0.671266" stroke-linecap="round" stroke-linejoin="round" stroke-dasharray="0.42 1.68"/>
<path d="M531.359 213.954H538.7L544.568 208.085" stroke="#EF6671" stroke-width="0.671266" stroke-linecap="round" stroke-linejoin="round" stroke-dasharray="0.42 1.68"/>
<path d="M531.358 233.292H555.969" stroke="#EF6671" stroke-width="0.671266" stroke-linecap="round" stroke-linejoin="round" stroke-dasharray="0.42 1.68"/>
<circle r="1.67816" transform="matrix(-1 0 0 1 492.216 223.466)" stroke="#00E394" stroke-width="0.587358"/>
<path fill-rule="evenodd" clip-rule="evenodd" d="M502.487 233.677H532.531V240.269C532.531 240.269 532.531 240.269 532.531 240.269C532.531 243.032 525.805 245.271 517.509 245.271C509.213 245.271 502.488 243.032 502.487 240.269V233.677Z" fill="#415085"/>
<ellipse rx="15.022" ry="5.00138" transform="matrix(-1 0 0 1 517.509 233.677)" fill="#0D255D"/>
<ellipse rx="12.7672" ry="3.61122" transform="matrix(-1 0 0 1 517.508 233.677)" fill="#2C3B6D"/>
<ellipse rx="0.549333" ry="0.823999" transform="matrix(-0.965926 0.258819 0.258819 0.965926 507.454 240.681)" fill="white"/>
<ellipse rx="0.549333" ry="0.823999" transform="matrix(-0.965926 0.258819 0.258819 0.965926 505.257 239.857)" fill="#F3E600"/>
<path fill-rule="evenodd" clip-rule="evenodd" d="M502.487 224.224H532.531V230.816C532.531 230.816 532.531 230.816 532.531 230.816C532.531 233.578 525.806 235.817 517.509 235.817C509.213 235.817 502.487 233.578 502.487 230.816V224.224Z" fill="url(#paint0_linear_669_4764)"/>
<ellipse rx="15.022" ry="5.00138" transform="matrix(-1 0 0 1 517.509 224.224)" fill="#0D255D"/>
<ellipse rx="12.7672" ry="3.61122" transform="matrix(-1 0 0 1 517.508 224.224)" fill="#2C3B6D"/>
<ellipse rx="0.549333" ry="0.823999" transform="matrix(-0.965926 0.258819 0.258819 0.965926 507.454 231.228)" fill="white"/>
<ellipse rx="0.549333" ry="0.823999" transform="matrix(-0.965926 0.258819 0.258819 0.965926 505.257 230.404)" fill="#F3E600"/>
<path fill-rule="evenodd" clip-rule="evenodd" d="M502.487 214.885H532.531V221.477C532.531 221.477 532.531 221.477 532.531 221.477C532.531 224.239 525.806 226.479 517.509 226.479C509.213 226.479 502.487 224.239 502.487 221.477C502.487 221.477 502.487 221.477 502.487 221.477V214.885Z" fill="url(#paint1_linear_669_4764)"/>
<ellipse rx="15.022" ry="5.00138" transform="matrix(-1 0 0 1 517.509 214.885)" fill="#717EAD"/>
<ellipse rx="13.504" ry="4.04494" transform="matrix(-1 0 0 1 517.51 214.885)" fill="#415085"/>
<ellipse rx="8.43902" ry="1.98081" transform="matrix(-1 0 0 1 517.508 214.885)" fill="#2C3B6D"/>
<ellipse rx="0.549333" ry="0.823999" transform="matrix(-0.965926 0.258819 0.258819 0.965926 507.454 221.889)" fill="white"/>
<ellipse rx="0.549333" ry="0.823999" transform="matrix(-0.965926 0.258819 0.258819 0.965926 505.257 221.065)" fill="#F3E600"/>
<path d="M517.508 214.818L517.508 201.142" stroke="#EF6671" stroke-width="0.671266" stroke-linecap="round" stroke-linejoin="round" stroke-dasharray="0.42 1.68"/>
<circle r="1.67816" transform="matrix(-1 0 0 1 517.507 199.464)" stroke="#EF6671" stroke-width="0.587358"/>
</g>
<ellipse cx="342.899" cy="182.126" rx="25.5124" ry="6.81898" fill="#C4E1D7"/>
<path d="M387.325 113.034C387.325 140.359 362.138 168.67 349.694 180.99C345.882 184.764 339.919 184.764 336.107 180.99C323.663 168.67 298.477 140.359 298.477 113.034C298.477 101.252 303.157 89.9526 311.488 81.6214C319.819 73.2903 331.119 68.6099 342.901 68.6099C354.683 68.6099 365.982 73.2903 374.313 81.6214C382.645 89.9526 387.325 101.252 387.325 113.034Z" fill="#275C3D"/>
<mask id="mask1_669_4764" style="mask-type:alpha" maskUnits="userSpaceOnUse" x="310" y="80" width="66" height="66">
<circle cx="342.901" cy="113.034" r="32.8934" fill="#C3F3F9"/>
</mask>
<g mask="url(#mask1_669_4764)">
<circle cx="342.901" cy="113.034" r="32.8934" fill="#C3F3F9"/>
<path d="M304.996 127.349H379.505V145.928H304.996V127.349Z" fill="#41855D"/>
<ellipse cx="342.902" cy="138.427" rx="10" ry="1.5" fill="#275C3D"/>
<path d="M323.713 104.096C325.368 99.4668 328.622 95.5816 332.889 93.1411C337.156 90.7005 342.155 89.8653 346.984 90.786C351.812 91.7067 356.153 94.3228 359.223 98.1623C360.773 100.101 361.947 102.287 362.709 104.608" stroke="#EF6671" stroke-width="2.46701" stroke-linecap="round" stroke-linejoin="round"/>
<path d="M323.293 116.657C324.634 121.386 327.621 125.48 331.715 128.201C335.809 130.922 340.74 132.091 345.62 131.495C350.499 130.9 355.006 128.581 358.326 124.955C360.056 123.066 361.405 120.886 362.323 118.536" stroke="#EF6671" stroke-width="2.46701" stroke-linecap="round" stroke-linejoin="round"/>
<path d="M328.206 103.044L323.249 104.266L322.027 99.3228" stroke="#EF6671" stroke-width="2.46701" stroke-linecap="round" stroke-linejoin="round"/>
<path d="M357.608 119.627L362.555 118.408L363.773 123.34" stroke="#EF6671" stroke-width="2.46701" stroke-linecap="round" stroke-linejoin="round"/>
<path d="M342.353 124.45C343.672 121.046 345.116 114.416 344.635 107.033" stroke="#275C3D" stroke-width="0.493401"/>
<mask id="mask2_669_4764" style="mask-type:alpha" maskUnits="userSpaceOnUse" x="343" y="113" width="13" height="8">
<path d="M343.724 120.202C344.59 117.478 348.139 112.468 355.409 114.215C354.678 117.034 351.317 122.178 343.724 120.202Z" fill="#68A872"/>
</mask>
<g mask="url(#mask2_669_4764)">
<path d="M343.724 120.202C344.59 117.478 348.139 112.468 355.409 114.215C354.678 117.034 351.317 122.178 343.724 120.202Z" fill="#41855D"/>
<path fill-rule="evenodd" clip-rule="evenodd" d="M343.619 120.454C346.965 117.832 349.608 116.633 352.452 115.598C350.195 116.063 346.65 117.4 343.447 120.08L343.619 120.454Z" fill="#275C3D"/>
</g>
<path d="M343.234 121.613C343.123 120.877 342.589 119.724 341.795 118.639" stroke="#275C3D" stroke-width="0.493401" stroke-linejoin="round"/>
<mask id="mask3_669_4764" style="mask-type:alpha" maskUnits="userSpaceOnUse" x="329" y="109" width="14" height="11">
<path d="M338.387 111.286C341.602 113.596 342.484 117.695 342.187 119.138C340.703 119.394 337.669 119.72 334.519 117.687C331.307 115.615 330.21 111.741 329.911 110.065C331.209 109.375 334.722 108.654 338.387 111.286Z" fill="#68A872"/>
</mask>
<g mask="url(#mask3_669_4764)">
<path d="M338.387 111.286C341.602 113.596 342.484 117.695 342.187 119.138C340.703 119.394 337.669 119.72 334.519 117.687C331.307 115.615 330.21 111.741 329.911 110.065C331.209 109.375 334.722 108.654 338.387 111.286Z" fill="#41855D"/>
<path fill-rule="evenodd" clip-rule="evenodd" d="M342.485 119.271C339.552 114.729 335.505 112.217 333.149 111.463C335.18 112.408 338.693 114.633 342.146 119.504L342.485 119.271Z" fill="#275C3D"/>
</g>
<path d="M349.092 106.417C349.092 110.142 345.984 113.835 344.429 115.216C343.127 113.535 340.515 109.422 340.484 106.417C340.431 101.375 342.247 99.9086 342.962 96.4783C345.343 97.8748 349.092 101.166 349.092 106.417Z" fill="#41855D"/>
<path d="M344.213 114.973C344.581 111.092 344.972 106.234 344.351 100.299C345.782 106.598 344.716 114.997 344.716 114.997L344.409 115.32L344.213 114.973Z" fill="#275C3D"/>
</g>
<ellipse cx="209.464" cy="408.928" rx="25.5124" ry="6.81898" fill="#C4E1D7"/>
<path d="M253.889 339.837C253.889 367.162 228.703 395.473 216.259 407.792C212.447 411.566 206.483 411.566 202.672 407.792C190.228 395.473 165.041 367.162 165.041 339.837C165.041 328.055 169.721 316.755 178.053 308.424C186.384 300.093 197.683 295.412 209.465 295.412C221.247 295.412 232.547 300.093 240.878 308.424C249.209 316.755 253.889 328.055 253.889 339.837Z" fill="#275C3D"/>
<mask id="mask4_669_4764" style="mask-type:alpha" maskUnits="userSpaceOnUse" x="176" y="306" width="67" height="67">
<circle cx="209.464" cy="339.837" r="32.8934" fill="#C3F3F9"/>
</mask>
<g mask="url(#mask4_669_4764)">
<circle cx="209.464" cy="339.837" r="32.8934" fill="#C3F3F9"/>
<path d="M171.559 348.06H246.068V372.73H171.559V348.06Z" fill="#41855D"/>
<ellipse cx="209.463" cy="360.943" rx="13.7056" ry="1.64467" fill="#275C3D"/>
<path d="M215.677 343.692C222.663 331.591 215.818 322.65 210.433 319.54C205.047 316.431 196.631 320.925 191.636 329.578C186.64 338.231 186.956 347.766 192.341 350.876C197.727 353.985 209.638 354.152 215.677 343.692Z" fill="#511A1A"/>
<mask id="mask5_669_4764" style="mask-type:alpha" maskUnits="userSpaceOnUse" x="188" y="318" width="27" height="34">
<ellipse rx="11.2599" ry="18.0914" transform="matrix(0.866025 0.5 0.5 -0.866025 201.387 335.208)" fill="#60241A"/>
</mask>
<g mask="url(#mask5_669_4764)">
<ellipse rx="11.2599" ry="18.0914" transform="matrix(0.866025 0.5 0.5 -0.866025 201.387 335.208)" fill="#84483E"/>
<path fill-rule="evenodd" clip-rule="evenodd" d="M196.369 335.619C191.466 341.553 191.897 346.807 192.873 349.392C192.965 347.114 194.636 343.042 198.984 337.78C200.362 336.113 201.79 334.708 203.203 333.379C203.52 333.081 203.839 332.784 204.158 332.487C205.237 331.483 206.315 330.481 207.283 329.455C209.183 327.441 210.323 324.016 209.428 320.675C208.084 324.245 205.887 325.991 204.816 327.127C203.93 328.065 202.964 328.964 201.903 329.951C201.571 330.261 201.23 330.578 200.879 330.908C199.432 332.269 197.882 333.788 196.369 335.619Z" fill="#511A1A"/>
</g>
<path d="M211.506 348.817L208.658 353.75" stroke="#ECC600" stroke-width="1.3804" stroke-linecap="round"/>
<path d="M216.594 347.461L211.495 348.827L210.028 343.67L218.145 329.612L224.711 333.402L216.594 347.461Z" fill="#C7A700"/>
<mask id="mask6_669_4764" style="mask-type:alpha" maskUnits="userSpaceOnUse" x="220" y="319" width="10" height="14">
<path d="M228.665 319.116C230.303 325.224 226.286 331.18 220.861 332.634C219.358 327.025 222.685 320.718 228.665 319.116Z" fill="#D9D9D9"/>
</mask>
<g mask="url(#mask6_669_4764)">
<path d="M228.665 319.116C230.303 325.224 226.286 331.18 220.861 332.634C219.358 327.025 222.685 320.718 228.665 319.116Z" fill="#ECC600"/>
<path d="M223.453 330.062C223.624 327.782 222.648 325.284 221.847 324.124L220.814 325.611L220.66 332.972L223.453 330.062Z" fill="#C7A700"/>
</g>
<path d="M220.837 332.655C223.361 328.283 221.833 322.804 217.532 320.321C214.947 324.799 216.75 330.295 220.837 332.655Z" fill="#F3E600"/>
<path d="M220.837 332.655C223.361 328.283 228.87 326.867 233.171 329.35C230.585 333.828 224.925 335.015 220.837 332.655Z" fill="#ECC600"/>
<path d="M217.718 338.054C220.242 333.683 218.714 328.204 214.413 325.721C211.828 330.199 213.631 335.694 217.718 338.054Z" fill="#F3E600"/>
<path d="M214.611 343.436C217.135 339.064 215.606 333.585 211.306 331.102C208.72 335.58 210.523 341.076 214.611 343.436Z" fill="#F3E600"/>
<path d="M211.507 348.816C214.031 344.445 212.503 338.965 208.202 336.483C205.617 340.961 207.42 346.456 211.507 348.816Z" fill="#F3E600"/>
<path d="M217.718 338.054C220.242 333.683 225.751 332.267 230.052 334.75C227.466 339.228 221.806 340.414 217.718 338.054Z" fill="#ECC600"/>
<path d="M214.611 343.436C217.134 339.064 222.644 337.648 226.944 340.131C224.359 344.609 218.698 345.796 214.611 343.436Z" fill="#ECC600"/>
<path d="M211.507 348.816C214.031 344.445 219.54 343.029 223.841 345.511C221.255 349.99 215.595 351.176 211.507 348.816Z" fill="#ECC600"/>
</g>
<ellipse cx="720.744" cy="201.115" rx="35" ry="3" fill="#C4E1D7"/>
<path d="M730.062 191.307H736.981L737.695 196.366H730.777L730.062 191.307Z" fill="#6E3930"/>
<path d="M730.062 191.307H736.981L737.28 193.425H730.361L730.062 191.307Z" fill="#511A1A"/>
<rect x="709.707" y="191.307" width="6.91861" height="5.05926" fill="#6E3930"/>
<path d="M709.705 191.307H716.624V193.425H709.705V191.307Z" fill="#511A1A"/>
<path d="M709.609 194.848L716.656 194.669L717.51 199.907C717.635 200.423 717.262 200.895 716.763 200.896L701.47 200.912C700.68 200.913 700.388 199.797 701.136 199.409L709.609 194.848Z" fill="#6E3930"/>
<path d="M709.594 194.893C709.856 194.918 710.523 195.152 711.092 195.883" stroke="white" stroke-width="0.367578" stroke-linecap="round"/>
<path d="M708.094 195.665C708.356 195.69 709.023 195.924 709.592 196.655" stroke="white" stroke-width="0.367578" stroke-linecap="round"/>
<path d="M706.679 196.433C706.942 196.458 707.609 196.692 708.178 197.423" stroke="white" stroke-width="0.367578" stroke-linecap="round"/>
<path d="M708.349 191.958L706.777 108.291L732.155 109.584L739.191 191.958H728.519L719.943 129.636L718.515 191.958H708.349Z" fill="#0D255D"/>
<path d="M727.389 187.489H739.569V191.957H728.133L727.389 187.489Z" fill="#415085"/>
<path d="M707.545 187.489H719.353L718.98 191.957H707.917L707.545 187.489Z" fill="#415085"/>
<path d="M736.553 186.373L731.053 125.157" stroke="#00E7FF" stroke-width="0.223737" stroke-linecap="round"/>
<path opacity="0.2" d="M719.172 163.352L717.984 116.433L719.968 129.575L719.172 163.352Z" fill="black"/>
<path d="M719.986 129.708L717.984 116.342" stroke="black" stroke-width="0.357636" stroke-linecap="round"/>
<path d="M686.519 82.3997C687.458 83.8581 687.516 84.6859 689.314 86.1416L686.346 90.1828L684.465 88.5017C683.068 88.1987 680.137 87.8725 680.535 86.3572C680.137 86.0806 679.985 85.6903 680.137 85.1592C679.888 84.8904 679.476 84.2564 679.979 83.7158C678.952 81.7684 682.019 81.9629 683.873 82.0804L683.896 82.0819C683.071 81.0097 682.535 79.0674 683.241 78.9264C683.59 78.8564 683.881 79.5036 684.514 80.2355C685.157 80.9793 686.141 81.8134 686.519 82.3997Z" fill="#DB8D8D"/>
<path d="M681.294 82.8193C681.896 82.9879 683.109 82.9701 683.205 83.5486C683.314 84.2147 682.333 84.313 679.974 83.7198" stroke="#BE6C6C" stroke-width="0.220547" stroke-linecap="round"/>
<path d="M682.633 84.0923C683.464 84.1587 684.46 85.7496 680.113 85.1547" stroke="#BE6C6C" stroke-width="0.220547" stroke-linecap="round"/>
<path d="M682.249 85.2727C682.725 85.2727 683.008 85.3985 683.144 85.5259C683.879 86.2123 682.924 86.7339 680.553 86.3596" stroke="#BE6C6C" stroke-width="0.220547" stroke-linecap="round"/>
<path d="M682.618 86.4397C683.431 86.4981 683.771 87.7886 681.473 87.4833" stroke="#BE6C6C" stroke-width="0.220547" stroke-linecap="round"/>
<path d="M706.043 77.5064C705.617 78.4005 698.096 93.3347 698.096 93.3347L689.079 85.6061C687.545 86.1563 685.87 89.1707 685.945 91.9721L696.996 103.343C698.993 105.402 702.304 105.109 704.006 101.84L709.649 90.707C711.348 87.0993 710.741 75.8829 709.662 73.6042C708.059 74.0839 707.252 74.9689 706.043 77.5064Z" fill="#4E9B6E"/>
<path d="M698.109 93.3442L700.75 95.7158" stroke="#347951" stroke-width="0.367578" stroke-linecap="round"/>
<circle cx="720.051" cy="57.5738" r="6.86918" fill="#E74452"/>
<ellipse cx="720.366" cy="56.6505" rx="6.86918" ry="3.17286" transform="rotate(15.6481 720.366 56.6505)" fill="#F3E600"/>
<ellipse cx="719.774" cy="59.297" rx="13.35" ry="4.8068" transform="rotate(14.7218 719.774 59.297)" fill="#E74452"/>
<path d="M723.532 56.884C720.161 53.2676 716.871 55.8123 714.585 56.0864C714.455 56.4629 713.227 56.5203 713.193 56.884C713.075 58.1117 713.432 59.198 713.791 59.6823L723.308 67.0857C726.922 64.797 727.404 60.7373 726.638 57.8553C726.127 55.9335 724.594 56.884 723.532 56.884Z" fill="#8A2D1D"/>
<path d="M733.166 74.4382C731.918 73.9123 726.814 71.884 722.984 70.2998L718.009 71.2192L709.66 73.603C708.831 78.1265 707.914 97.2141 706.836 108.444C713.98 110.927 726.175 112.627 732.576 111.37V88.586C730.547 84.3647 730.268 79.3012 733.166 74.4382Z" fill="#4E9B6E"/>
<path d="M706.834 111.385C713.978 113.868 726.173 112.627 732.574 111.37V107.33C729.422 101.755 728.686 88.7071 730.157 73.2157C729.157 72.8122 728.666 72.5983 727.49 72.1218C726.949 77.6643 726.685 81.1202 726.285 87.9193H712.026C712.47 82.3579 712.946 76.9581 713.691 72.4459L711.026 73.2007C710.074 79.1548 707.116 103.705 706.779 108.301C706.779 108.301 706.974 108.766 706.834 111.385Z" fill="#0D255D"/>
<path d="M713.69 72.4458C712.945 76.958 712.469 82.3578 712.025 87.9192C711.833 90.3244 708.838 89.88 709.078 87.9192C709.853 81.6265 710.62 75.7323 711.025 73.2006L713.69 72.4458Z" fill="#415085"/>
<path d="M730.158 73.2157C729.157 72.8122 728.666 72.5983 727.49 72.1218C726.95 77.6643 726.686 81.1202 726.286 87.9193C726.138 90.4319 729.472 90.4294 729.473 87.9193C729.473 84.1805 729.559 79.5229 730.158 73.2157Z" fill="#415085"/>
<path d="M718.682 77.7388L717.957 87.782" stroke="#347951" stroke-width="0.372895" stroke-linecap="round"/>
<path d="M735.161 109.274L739.813 100.516L742.966 103.683L737.026 112.614C735.41 114.526 733.921 113.995 731.856 113.694L729.736 114.931C728.594 115.574 727.883 115.028 728.49 114.374C727.632 114.604 727.024 114.058 727.682 113.306C726.768 113.618 725.927 113.316 726.909 112.215C725.832 112.588 725.439 112.018 726.42 110.994L729.273 108.307C729.831 107.781 730.638 107.616 731.357 107.88L735.161 109.274Z" fill="#DB8D8D"/>
<path d="M726.935 112.187L729.41 110.19" stroke="#BE6C6C" stroke-width="0.220547" stroke-linecap="round"/>
<path d="M727.687 113.296L730.148 111.451" stroke="#BE6C6C" stroke-width="0.220547" stroke-linecap="round"/>
<path d="M728.513 114.361L730.855 112.709" stroke="#BE6C6C" stroke-width="0.220547" stroke-linecap="round"/>
<path d="M741.054 96.9815L732.574 88.5859C729.45 82.485 731.652 76.7454 733.156 74.4446C733.156 74.4446 734.458 74.9783 735.804 76.4842L750.035 92.8536C751.345 94.3605 751.498 96.553 750.41 98.2273L740.211 113.925C737.886 113.56 735.4 111.374 734.954 108.864L741.054 96.9815Z" fill="#4E9B6E"/>
<path d="M741.045 96.9916L741.742 95.6836" stroke="#347951" stroke-width="0.367578" stroke-linecap="round"/>
<path d="M723.735 70.7186V61.7595L717.422 66.2V71.3106C717.174 72.8888 717.456 74.0384 717.725 74.7982C718.296 76.4108 719.583 76.2857 721.066 74.9026C722.044 73.9895 723.184 72.7933 723.735 70.7186Z" fill="#DB8D8D"/>
<path d="M718.696 77.5825L721.16 73.9964L717.742 73.8704L718.696 77.5825Z" fill="#DB8D8D"/>
<circle r="0.465244" transform="matrix(-1 0 0 1 710.476 88.1527)" fill="#00E7FF"/>
<circle r="0.465244" transform="matrix(-1 0 0 1 727.843 88.3703)" fill="#00E7FF"/>
<path d="M718.696 77.5805L723.737 69.8625L725.826 71.0876L725.478 75.4913L722.505 73.8895L718.696 77.5805Z" fill="#CFEDDC"/>
<path d="M718.696 77.5815L717.425 70.2256L715.335 71.4506L714.189 75.482L717.163 73.8802L718.696 77.5815Z" fill="#CFEDDC"/>
<path d="M723.265 65.843C722.495 68.1456 719.956 70.2257 717.422 70.2257V67.9854L723.735 63.5449L723.265 65.843Z" fill="#BE6C6C"/>
<path d="M737.452 194.704H730.537L726.635 199.293C726.464 199.493 726.371 199.747 726.371 200.009C726.371 200.62 726.866 201.115 727.477 201.115H738.217C738.914 201.115 739.479 200.55 739.479 199.853C739.479 199.688 739.446 199.524 739.383 199.371L737.452 194.704Z" fill="#6E3930"/>
<path d="M731.272 195.296C732.023 194.895 733.469 194.98 734.213 195.663" stroke="white" stroke-width="0.367578" stroke-linecap="round"/>
<path d="M730.538 196.398C731.289 195.998 732.734 196.082 733.479 196.766" stroke="white" stroke-width="0.367578" stroke-linecap="round"/>
<path d="M729.804 197.501C730.555 197.1 732 197.185 732.744 197.869" stroke="white" stroke-width="0.367578" stroke-linecap="round"/>
<path d="M723.945 60.1526V63.6569C723.945 65.4874 722.961 67.328 719.026 68.854C715.091 70.38 713.981 65.7753 713.917 63.2821V60.1526C713.917 57.3835 716.162 55.1387 718.931 55.1387C721.7 55.1387 723.945 57.3835 723.945 60.1526Z" fill="#DB8D8D"/>
<path d="M716.512 65.6632C716.808 66.9784 719.152 66.6746 719.152 65.4872L716.512 65.6632Z" fill="white"/>
<circle r="0.34186" transform="matrix(-1 0 0 1 715.516 61.502)" fill="#451A12"/>
<circle r="0.34186" transform="matrix(-1 0 0 1 719.059 61.502)" fill="#451A12"/>
<ellipse rx="0.968126" ry="0.268204" transform="matrix(-0.991901 0.127012 0.127012 0.991901 715.132 59.7313)" fill="#892D1D"/>
<ellipse cx="719.437" cy="59.7958" rx="1.12871" ry="0.312692" transform="rotate(7.29697 719.437 59.7958)" fill="#892D1D"/>
<path d="M716.807 60.9753C717.075 61.192 717.299 61.5787 716.807 62.1672C716.549 62.4754 716.279 62.7916 716.042 63.0729C715.716 63.4618 715.74 63.9771 716.214 64.16C716.325 64.2028 716.451 64.2452 716.593 64.2856" stroke="#892D1D" stroke-width="0.299159" stroke-linecap="round"/>
<path d="M721.382 56.6669C721.701 60.9804 722.9 61.9569 723.459 62.2631L724.057 62.0402V56.2744L716.532 54.6416L713.439 56.6669C715.092 58.4589 719.735 56.9994 721.382 56.6669Z" fill="#8A2D1D"/>
<path d="M720.791 58.4149C716.616 57.2762 712.889 57.9405 711.547 58.4149L712.963 55.3517L715.573 54.406H718.923L726.778 57.0413L727.008 59.8382C727.033 60.736 726.99 61.2422 726.778 62.152C726.445 61.3212 724.965 59.5536 720.791 58.4149Z" fill="#E74452"/>
<path d="M725.771 62.1613C726.058 61.5621 725.726 60.85 725.083 60.6834C724.476 60.5262 723.867 60.9296 723.774 61.5498L723.529 63.1957C723.477 63.5432 723.656 63.8842 723.972 64.0385C724.374 64.2349 724.859 64.0661 725.052 63.6624L725.771 62.1613Z" fill="#DB8D8D"/>
<path d="M724.457 61.6641C724.562 61.3362 725.188 61.3203 725.1 61.8739C725.065 62.0882 724.793 62.598 724.64 62.9097" stroke="#BE6C6C" stroke-width="0.223737" stroke-linecap="round"/>
<path d="M712.957 93.3645H723.75C723.926 93.3645 724.066 93.5106 724.059 93.6861L723.721 102.159C723.711 102.411 723.549 102.632 723.311 102.717L717.963 104.62C717.749 104.696 717.515 104.691 717.304 104.606L712.696 102.74C712.454 102.642 712.3 102.403 712.31 102.142L712.648 93.6614C712.655 93.4955 712.791 93.3645 712.957 93.3645Z" fill="#415085"/>
<path d="M225.723 62.5762H124.607C131.114 58.2428 147.625 49.5762 161.611 49.5762C175.597 49.5762 183.14 55.6639 185.164 58.7078C194.585 53.1161 202.201 57.6556 204.832 60.6243L225.723 62.5762Z" fill="#B8F3FF"/>
<path d="M581.623 12.96H462.33C468.219 6.61746 476.365 0.959961 485.747 0.959961C495.129 0.959961 502.614 9.07705 509.888 9.18247C517.161 9.28789 523.486 4.22788 530.444 4.22788C537.401 4.22788 540.88 9.28789 546.889 10.4475C552.898 11.6071 556.798 8.86624 563.65 8.23374C569.132 7.72774 577.916 11.1737 581.623 12.96Z" fill="#B8F3FF"/>
<path d="M149.116 217.281H0C7.36103 209.352 17.5437 202.281 29.2713 202.281C40.9989 202.281 50.3547 212.427 59.4469 212.559C68.5391 212.69 76.4453 206.365 85.1422 206.365C93.8391 206.365 98.1876 212.69 105.699 214.14C113.209 215.589 118.085 212.163 126.65 211.373C133.502 210.74 144.483 215.048 149.116 217.281Z" fill="#B8F3FF"/>
<defs>
<linearGradient id="paint0_linear_669_4764" x1="502.487" y1="230.021" x2="532.531" y2="230.021" gradientUnits="userSpaceOnUse">
<stop stop-color="#415085"/>
<stop offset="1" stop-color="#717FAD"/>
</linearGradient>
<linearGradient id="paint1_linear_669_4764" x1="502.487" y1="220.682" x2="532.531" y2="220.682" gradientUnits="userSpaceOnUse">
<stop stop-color="#415085"/>
<stop offset="1" stop-color="#717FAD"/>
</linearGradient>
</defs>
</svg>
